<svg xmlns="http://www.w3.org/2000/svg" viewBox="0 0 512 512">
  <rect width="512" height="512" rx="96" fill="#0f172a"/>
  <g transform="translate(256 256) scale(4.25)">
    <path
      d="M0,-28 C2,-10 10,-2 28,0 C10,2 2,10 0,28 C-2,10 -10,2 -28,0 C-10,-2 -2,-10 0,-28 Z"
      fill="none"
      stroke="#1B8FE8"
      stroke-width="4.5"
      stroke-linejoin="round"
    />
    <g transform="translate(-22 -23)">
      <path
        d="M0,-7.5 C0.5,-3 3,-0.5 7.5,0 C3,0.5 0.5,3 0,7.5 C-0.5,3 -3,0.5 -7.5,0 C-3,-0.5 -0.5,-3 0,-7.5 Z"
        fill="#1B8FE8"
      />
    </g>
    <g transform="translate(22 22)">
      <path
        d="M0,-6 C0.4,-2.5 2.5,-0.4 6,0 C2.5,0.4 0.4,2.5 0,6 C-0.4,2.5 -2.5,0.4 -6,0 C-2.5,-0.4 -0.4,-2.5 0,-6 Z"
        fill="#1B8FE8"
      />
    </g>
  </g>
</svg>
